<mxfile host="app.diagrams.net" modified="2021-09-14T11:08:41.333Z" agent="5.0 (Windows NT 10.0; Win64; x64) AppleWebKit/537.36 (KHTML, like Gecko) Chrome/93.0.4577.63 Safari/537.36 Edg/93.0.961.44" etag="5ov3C-cF7EF8OwTcitrQ" version="15.2.5" type="github">
  <diagram id="RV7NvKasJq13CEmnja0g" name="Page-1">
    <mxGraphModel dx="529" dy="297" grid="1" gridSize="5" guides="1" tooltips="1" connect="1" arrows="1" fold="1" page="1" pageScale="1" pageWidth="827" pageHeight="1169" math="1" shadow="0">
      <root>
        <mxCell id="0" />
        <mxCell id="1" parent="0" />
        <mxCell id="Sp-fAJiSXl7REy39m-OE-1" value="" style="endArrow=block;html=1;strokeColor=#2185BA;endFill=1;" edge="1" parent="1">
          <mxGeometry width="50" height="50" relative="1" as="geometry">
            <mxPoint x="240" y="240" as="sourcePoint" />
            <mxPoint x="240" y="180" as="targetPoint" />
          </mxGeometry>
        </mxCell>
        <mxCell id="Sp-fAJiSXl7REy39m-OE-2" value="" style="endArrow=block;html=1;strokeColor=#2185BA;endFill=1;" edge="1" parent="1">
          <mxGeometry width="50" height="50" relative="1" as="geometry">
            <mxPoint x="240" y="240" as="sourcePoint" />
            <mxPoint x="300" y="240" as="targetPoint" />
          </mxGeometry>
        </mxCell>
        <mxCell id="Sp-fAJiSXl7REy39m-OE-3" value="" style="endArrow=block;html=1;strokeColor=#2185BA;endFill=1;" edge="1" parent="1">
          <mxGeometry width="50" height="50" relative="1" as="geometry">
            <mxPoint x="240" y="240" as="sourcePoint" />
            <mxPoint x="210" y="280" as="targetPoint" />
          </mxGeometry>
        </mxCell>
        <mxCell id="Sp-fAJiSXl7REy39m-OE-4" value="" style="endArrow=block;html=1;strokeColor=#007D65;endFill=1;" edge="1" parent="1">
          <mxGeometry width="50" height="50" relative="1" as="geometry">
            <mxPoint x="360" y="240" as="sourcePoint" />
            <mxPoint x="360" y="180" as="targetPoint" />
          </mxGeometry>
        </mxCell>
        <mxCell id="Sp-fAJiSXl7REy39m-OE-5" value="" style="endArrow=block;html=1;strokeColor=#2185BA;endFill=1;opacity=30;" edge="1" parent="1">
          <mxGeometry width="50" height="50" relative="1" as="geometry">
            <mxPoint x="360" y="240" as="sourcePoint" />
            <mxPoint x="420" y="240" as="targetPoint" />
          </mxGeometry>
        </mxCell>
        <mxCell id="Sp-fAJiSXl7REy39m-OE-6" value="" style="endArrow=block;html=1;strokeColor=#2185BA;endFill=1;opacity=30;" edge="1" parent="1">
          <mxGeometry width="50" height="50" relative="1" as="geometry">
            <mxPoint x="360" y="240" as="sourcePoint" />
            <mxPoint x="330" y="280" as="targetPoint" />
          </mxGeometry>
        </mxCell>
        <mxCell id="Sp-fAJiSXl7REy39m-OE-8" value="" style="endArrow=block;html=1;strokeColor=#007D65;endFill=1;" edge="1" parent="1">
          <mxGeometry width="50" height="50" relative="1" as="geometry">
            <mxPoint x="360" y="240" as="sourcePoint" />
            <mxPoint x="390" y="280" as="targetPoint" />
          </mxGeometry>
        </mxCell>
        <mxCell id="Sp-fAJiSXl7REy39m-OE-9" value="" style="endArrow=block;html=1;strokeColor=#007D65;endFill=1;" edge="1" parent="1">
          <mxGeometry width="50" height="50" relative="1" as="geometry">
            <mxPoint x="360" y="240" as="sourcePoint" />
            <mxPoint x="400" y="210" as="targetPoint" />
          </mxGeometry>
        </mxCell>
        <mxCell id="Sp-fAJiSXl7REy39m-OE-11" value="" style="endArrow=block;html=1;strokeColor=#F15B6C;endFill=1;" edge="1" parent="1">
          <mxGeometry width="50" height="50" relative="1" as="geometry">
            <mxPoint x="490" y="240" as="sourcePoint" />
            <mxPoint x="520" y="280" as="targetPoint" />
          </mxGeometry>
        </mxCell>
        <mxCell id="Sp-fAJiSXl7REy39m-OE-12" value="" style="endArrow=block;html=1;strokeColor=#007D65;endFill=1;opacity=30;" edge="1" parent="1">
          <mxGeometry width="50" height="50" relative="1" as="geometry">
            <mxPoint x="490" y="240" as="sourcePoint" />
            <mxPoint x="530" y="210" as="targetPoint" />
          </mxGeometry>
        </mxCell>
        <mxCell id="Sp-fAJiSXl7REy39m-OE-14" value="" style="endArrow=block;html=1;strokeColor=#F15B6C;endFill=1;" edge="1" parent="1">
          <mxGeometry width="50" height="50" relative="1" as="geometry">
            <mxPoint x="490" y="240" as="sourcePoint" />
            <mxPoint x="490" y="180" as="targetPoint" />
          </mxGeometry>
        </mxCell>
        <mxCell id="Sp-fAJiSXl7REy39m-OE-15" value="" style="endArrow=block;html=1;strokeColor=#F15B6C;endFill=1;" edge="1" parent="1">
          <mxGeometry width="50" height="50" relative="1" as="geometry">
            <mxPoint x="490" y="240" as="sourcePoint" />
            <mxPoint x="450" y="270" as="targetPoint" />
          </mxGeometry>
        </mxCell>
        <mxCell id="Sp-fAJiSXl7REy39m-OE-16" value="" style="endArrow=none;html=1;strokeColor=#007D65;opacity=30;" edge="1" parent="1">
          <mxGeometry width="50" height="50" relative="1" as="geometry">
            <mxPoint x="353" y="250" as="sourcePoint" />
            <mxPoint x="367" y="250" as="targetPoint" />
            <Array as="points">
              <mxPoint x="360" y="255" />
            </Array>
          </mxGeometry>
        </mxCell>
        <mxCell id="Sp-fAJiSXl7REy39m-OE-17" value="$$60^{\circ}$$" style="text;html=1;strokeColor=none;fillColor=none;align=center;verticalAlign=middle;whiteSpace=wrap;rounded=0;fontColor=#007D65;textOpacity=30;" vertex="1" parent="1">
          <mxGeometry x="356" y="256" width="10" height="10" as="geometry" />
        </mxCell>
        <mxCell id="Sp-fAJiSXl7REy39m-OE-18" value="" style="endArrow=none;html=1;strokeColor=#F15B6C;opacity=30;" edge="1" parent="1">
          <mxGeometry width="50" height="50" relative="1" as="geometry">
            <mxPoint x="505" y="229" as="sourcePoint" />
            <mxPoint x="490" y="225" as="targetPoint" />
            <Array as="points">
              <mxPoint x="500" y="220" />
            </Array>
          </mxGeometry>
        </mxCell>
        <mxCell id="Sp-fAJiSXl7REy39m-OE-19" value="&lt;font color=&quot;#f15b6c&quot;&gt;$$90^{\circ}$$&lt;/font&gt;" style="text;html=1;strokeColor=none;fillColor=none;align=center;verticalAlign=middle;whiteSpace=wrap;rounded=0;fontColor=#007D65;textOpacity=30;" vertex="1" parent="1">
          <mxGeometry x="500" y="210" width="10" height="10" as="geometry" />
        </mxCell>
      </root>
    </mxGraphModel>
  </diagram>
</mxfile>
